# .PCD v0.7 - Point Cloud Data file format
VERSION 0.7
FIELDS x y z rgb
SIZE 4 4 4 4
TYPE F F F U
COUNT 1 1 1 1
WIDTH 754
HEIGHT 1
VIEWPOINT 0 0 0 1 0 0 0
POINTS 754
DATA ascii
-0.36088729 -1.4711637 -0.44756097 4288387995
0.99408668 -1.4491248 -0.40256163 4278848010
-0.29716033 -1.3925986 -0.42762357 4288387995
-1.0255558 0.96568763 -0.41212294 4288387995
-1.0479414 1.0242029 -0.42014813 4288387995
-1.3119439 1.3484796 -0.40678397 4288387995
-1.0456867 1.3129104 -0.48718461 4288387995
0.94105726 -1.4825281 -0.28629863 4278848010
0.79042959 -1.2390484 -0.27708718 4278782217
0.85862273 -1.3192321 -0.30874258 4278913803
-0.062485915 -1.0044283 -0.31708422 4285049448
0.1288262 -1.0036733 -0.20122242 4287072135
0.79445964 -1.1882507 -0.31867269 4280427042
0.822532 -1.1557392 -0.28862119 4282927176
-0.057878822 -0.9436453 -0.25201595 4280923432
0.077099532 -0.94723356 -0.25254345 4285493103
0.21650995 -0.82815397 -0.22285244 4285295724
0.19008446 -0.79182434 -0.27517021 4288387995
0.28482535 -0.70426643 -0.22683324 4288256409
0.37663519 -0.57305163 -0.20963663 4288387995
0.41207024 -0.5203678 -0.20430338 4288387995
-1.1239861 -0.070170179 -0.20493555 4288387995
-1.3906218 0.39158607 -0.28762054 4288387995
-1.496659 0.49400792 -0.28685886 4288387995
-1.3430564 0.51844394 -0.30780372 4288387995
-1.498278 0.69353944 -0.30957824 4288387995
-1.3030822 0.69860053 -0.33321029 4288322202
-1.1965657 0.78451824 -0.35565397 4288387995
-1.4981948 0.89407247 -0.33261371 4288387995
-1.244549 0.95615089 -0.3072235 4285558896
-1.0841399 0.96018332 -0.29854253 4285558896
-1.2838767 1.0443776 -0.29554826 4285361517
-1.0635074 1.0271089 -0.28567505 4285229931
-1.494418 1.2987415 -0.37952447 4288387995
-1.3509967 1.2696936 -0.39312592 4288387995
-0.85635519 -1.4853122 -0.009444925 4288387995
-0.67548382 -1.466332 -0.019310707 4288387995
-0.50996989 -1.4889123 -0.033065021 4288387995
0.083541907 -1.4697214 -0.024972051 4288387995
0.30400163 -1.442382 -0.00925868 4288387995
0.50009 -1.4780217 -0.019506907 4288387995
0.69044554 -1.4821157 -0.032288022 4288387995
1.1021545 -1.4881687 -0.049457304 4288387739
-0.63409311 -1.2450155 -0.0012638974 4288387995
-0.49716875 -1.2677823 -0.0083686737 4288387995
-0.30381733 -1.2922819 -0.013932734 4288387995
-0.11197963 -1.2885878 -0.013730261 4287861651
0.092849933 -1.3129092 -0.029919213 4288585374
0.29412395 -1.3315847 -0.017602885 4288387995
0.49315739 -1.3394552 -0.019589577 4288387995
0.69222015 -1.3449941 -0.022315446 4288387995
0.89043862 -1.3343444 -0.058597002 4288322202
1.0797554 -1.3437859 -0.033887427 4288387995
1.3039091 -1.3601849 -0.029641256 4288387995
1.4969848 -1.3642597 -0.036534127 4288387995
-1.4657347 -1.007458 -0.0011580074 4288387995
-0.6318385 -1.092029 -0.0057122521 4288387995
-0.50431186 -1.0958383 -0.010299324 4288387995
-0.30534747 -1.0886244 -0.013245604 4288387995
-0.14221789 -1.0841398 -0.014201655 4286545791
0.095471561 -1.0584253 -0.093383387 4289440683
0.24491867 -1.0581954 -0.041408315 4288124823
0.93594807 -1.0918545 -0.15746327 4288322202
1.0959517 -1.0996721 -0.055257898 4288387995
-1.382328 -0.81390691 -0.00067133451 4288387995
-0.6562894 -0.88189614 -0.0086867986 4288387995
-0.50197262 -0.90006852 -0.014080958 4288387995
-0.30562723 -0.89394265 -0.015189087 4288387995
-0.092186041 -0.89330429 -0.041173942 4287336075
0.076330625 -0.90527362 -0.062538154 4287664272
0.29828665 -0.87567914 -0.053486049 4288190616
0.49313363 -0.85475427 -0.026291756 4287335307
0.68993688 -0.87287331 -0.032787897 4285887861
0.9098261 -0.89290524 -0.086354256 4286282619
1.0981241 -0.87630707 -0.05015536 4286282619
1.3516703 -0.8552168 -0.044681896 4284900966
-1.374095 -0.76915628 -0.00036212956 4288387995
-1.039324 -0.60343474 -0.001304443 4284900966
-0.83885753 -0.6840111 -0.0024559719 4288387995
-0.69068873 -0.70134658 -0.011524844 4288387995
-0.50131971 -0.70572877 -0.014439652 4288387995
-0.3033044 -0.70338351 -0.017548958 4288387995
-0.10204443 -0.70434034 -0.020553278 4288387995
0.098931208 -0.70251882 -0.0232266 4288387995
0.30444831 -0.70246124 -0.045999356 4288322202
0.48830536 -0.6917696 -0.034554757 4288387995
0.69888973 -0.68853617 -0.028033752 4288387995
0.89598548 -0.69011956 -0.035581425 4288322202
1.0868274 -0.68129098 -0.03790481 4288124823
1.2756672 -0.67571276 -0.037399672 4287664273
1.4815558 -0.65512979 -0.040225349 4287795858
-1.0222604 -0.55556279 -0.0014021876 4284900966
-0.90884405 -0.51105636 -0.0010806954 4286414205
-0.6809833 -0.52528965 -0.0095531568 4288387995
-0.49799743 -0.50803763 -0.016370066 4288387995
-0.29966483 -0.50844741 -0.018120278 4288387995
-0.10366064 -0.50327563 -0.020161463 4288387995
0.094481483 -0.50410122 -0.024709471 4288387995
0.2948201 -0.50596136 -0.029922433 4288387995
0.50406069 -0.5006777 -0.061415706 4288387995
0.68480223 -0.49387947 -0.032800745 4288387995
0.89736897 -0.49812043 -0.035160895 4288387995
1.1015921 -0.49858317 -0.040136095 4288387995
1.2958351 -0.49349219 -0.037368111 4288387739
1.4802654 -0.50150341 -0.041430224 4288387739
-0.90947378 -0.30243134 -0.0021743889 4284900966
-0.63657677 -0.34888184 -0.0021826369 4288387995
-0.4874168 -0.31760457 -0.012971327 4288387995
-0.29612744 -0.30659306 -0.019564606 4288387995
-0.10140178 -0.30547822 -0.02138797 4288387995
0.098533794 -0.30778116 -0.023700973 4288387995
0.29977202 -0.30510637 -0.027517652 4288387995
0.511778 -0.31108877 -0.047761124 4288322202
0.69005859 -0.29622158 -0.049397871 4288256409
0.90736729 -0.30383542 -0.039589379 4288256409
1.0953708 -0.29504278 -0.036757935 4286419325
1.3036398 -0.30498958 -0.04184569 4288059798
-1.089679 -0.11753275 -0.095848568 4285558896
-0.93616235 -0.1569782 -0.085541986 4284900966
-0.78655434 -0.029115364 -0.0030210924 4284900966
-0.45463574 -0.12888822 -0.0040641678 4288387995
-0.29244697 -0.11480311 -0.017026111 4288322202
-0.10508772 -0.12021942 -0.020832939 4286808963
0.09295775 -0.14786705 -0.024029579 4287664272
0.30177411 -0.10922332 -0.029288353 4288322202
0.49193248 -0.10834102 -0.031275257 4288387995
0.71915126 -0.11812111 -0.047601458 4288190616
0.89335382 -0.073859662 -0.037161559 4287006342
1.0687219 -0.13340698 -0.033968125 4285953910
1.2794595 -0.13902174 -0.042667232 4288256409
1.4935396 -0.10134512 -0.046354059 4288190616
-1.1600897 0.0019990206 -0.024384096 4284900966
-0.73419553 0.095359184 -0.0033661935 4284900966
-0.27287033 0.074247316 -0.0087167732 4288387995
-0.1366857 0.080103062 -0.018016227 4286874756
0.015344421 0.1952213 -0.011578787 4284900966
0.3467814 0.035477646 -0.035232671 4287993237
0.51193893 0.083038509 -0.03118298 4288322202
0.70534521 0.091696598 -0.034712862 4288322202
0.93560511 0.093081638 -0.032747179 4286940549
1.0725838 0.1429971 -0.041154638 4286677377
1.2494557 0.099317469 -0.05204282 4285887861
1.4927979 0.083454452 -0.06964267 4286611585
-0.64695734 0.28941077 -0.0036773174 4285098345
-0.57421136 0.32673287 -6.3125721e-05 4288387995
-0.23601882 0.24448839 -0.00055887765 4288387995
-0.079863288 0.2846438 -0.011096055 4288256409
0.075350441 0.33203152 -0.024158668 4287532686
0.5757671 0.23309246 -0.035538509 4287927444
0.71892071 0.27550331 -0.034369927 4288256409
0.88395917 0.2675465 -0.037497006 4286940549
1.0979235 0.28023031 -0.030046316 4288387995
1.2832966 0.35150576 -0.042820044 4288387995
1.4794029 0.27624395 -0.067775823 4285493103
-0.60213041 0.4462148 -0.004164747 4284900966
-0.53652966 0.48859635 -0.002980873 4286019447
-0.052043818 0.46678364 -0.00091352774 4288387995
0.11647061 0.48480454 -0.018725727 4288322202
0.28735891 0.53796154 -0.025257174 4286808963
0.91219157 0.44419563 -0.033819407 4288059030
1.1175383 0.50538349 -0.041206077 4288256409
1.2595996 0.47038531 -0.046674054 4288387995
-1.3370969 0.65509993 -0.10278689 4288387995
-1.0432358 0.72660089 -0.064747624 4283058762
-0.92303723 0.74441791 -0.13287409 4287598479
-0.694538 0.73197526 -0.13404155 4288387995
-0.49156868 0.72798795 -0.12275667 4288124823
-0.30050483 0.73123527 -0.12574506 4288322202
-0.10455222 0.7304728 -0.10894263 4288651167
0.087751761 0.72348785 -0.030669192 4288387995
0.29616731 0.67453188 -0.027371138 4288322202
0.4601056 0.74355644 -0.01294067 4287137928
1.1198847 0.62572098 -0.032719646 4288124823
1.3152746 0.70424443 -0.043558665 4288256409
1.4646767 0.67169446 -0.053435519 4288387995
-1.2140721 0.98880333 -0.14835039 4284900966
-1.0658798 0.930107 -0.098634988 4287335307
-0.97439557 0.83482832 -0.10011001 4284572001
-0.70437258 0.81886637 -0.17601338 4290098613
-0.49147731 0.81612021 -0.12517983 4287401100
-0.3403773 0.91244656 -0.0033091707 4286414205
-0.027799917 0.81506348 -0.032477465 4291151301
0.069660567 0.89634717 -0.050867446 4289769648
0.30609939 0.85849965 -0.0019181853 4288387995
0.50641406 0.90791303 -0.030098649 4288322202
0.65297443 0.92112792 -0.035109542 4286743170
1.3778809 0.80420935 -0.068093285 4288387995
-1.2425122 1.0417413 -0.09456104 4284835173
-1.088159 1.0374894 -0.084796742 4284900966
-0.26236367 1.0853963 -0.0036482734 4286414205
0.064096496 1.0629095 -0.051807366 4291348680
0.37108842 1.0605307 -0.00109636 4288387995
0.48740089 1.0337913 -0.02492369 4288387995
0.67401475 1.122015 -0.014655125 4288322459
0.82860512 1.1195601 -0.043283895 4286743170
-0.21852246 1.3030221 -0.0067992643 4284900966
-0.16747645 1.24058 -0.0022713626 4287335307
0.53957886 1.2350532 -0.0016439307 4288387995
0.76759124 1.2354605 -0.070780046 4288387995
0.89293671 1.3562448 -0.0046692342 4288387738
1.0469713 1.3231022 -0.038314134 4286282619
-0.087808475 1.462285 -0.0035862233 4286808963
0.71965694 1.4573629 -0.0019548403 4288387740
0.93600184 1.4586426 -0.064031795 4288322458
1.0755734 1.4756247 -0.054252502 4288387739
-1.2853101 -1.4981151 0.0428598 4288387995
-1.0853715 -1.4957399 0.056311507 4287927444
-0.89967674 -1.4952037 0.051307615 4287861651
-1.2921069 -1.3017282 0.034735214 4288190616
-1.1105995 -1.2962649 0.090910435 4286480510
-0.89429706 -1.3189141 0.085051894 4288124823
-0.69619596 -1.3056039 0.065327518 4288322202
-0.50984573 -1.2946018 0.053956371 4288387995
-0.29761463 -1.3008277 0.044587914 4288387995
-0.090560414 -1.2673799 0.079191051 4286414205
0.097128205 -1.2904255 0.053869613 4288256665
0.30268821 -1.2980912 0.02974507 4288387995
0.49856913 -1.3016053 0.02932938 4288322202
0.69687986 -1.3019129 0.035354845 4288387995
0.91256952 -1.2906325 0.03875367 4288059030
1.0801756 -1.2638183 0.080659017 4286545791
1.2947947 -1.296213 0.03817416 4288322202
-1.499022 -1.092939 0.056282416 4288190616
-1.2730193 -1.0925566 0.087541915 4286019703
-1.1311266 -1.1183268 0.078968629 4284900966
-0.92222518 -1.0927769 0.080732651 4289374890
-0.69679368 -1.0950116 0.027705876 4288387995
-0.50284851 -1.100463 0.043537952 4288322202
-0.29412746 -1.1012141 0.051771238 4288322202
-0.12712148 -1.1026715 0.10175424 4285690482
0.13769244 -1.0923662 0.099293225 4289769648
0.30219355 -1.097365 0.027192706 4288256409
0.50061077 -1.092694 0.023705706 4288322202
0.6995014 -1.1009846 0.029210038 4288322202
0.93619227 -1.0933913 0.084925324 4285822324
1.0451121 -1.1054698 0.096306205 4285558896
1.2971404 -1.075843 0.047364734 4288519581
1.4941196 -1.1047691 0.027743263 4288124823
-1.4957211 -0.89519334 0.05613365 4287993237
-1.3040975 -0.9043048 0.069272175 4287861651
-1.1029805 -0.92849559 0.088048398 4286216826
-0.89995497 -0.89779156 0.033738133 4287861651
-0.69993567 -0.90580726 0.031994093 4288190616
-0.50007391 -0.90561789 0.036069568 4288190616
-0.30650172 -0.89838481 0.035041008 4288190616
-0.088982336 -0.91874355 0.06312187 4287072134
0.079509892 -0.918019 0.060592979 4287269514
0.30751008 -0.90014094 0.029413966 4288256409
0.50342613 -0.89461988 0.044528458 4288124823
0.69883394 -0.89969534 0.021383902 4288256409
0.91683662 -0.91456294 0.037166584 4287730065
1.1020268 -0.92997861 0.082884178 4285887861
1.2738614 -0.91787475 0.049807016 4286809219
1.4965864 -0.9074505 0.030390296 4288190616
-1.4952748 -0.70853531 0.035624869 4288387995
-1.3068814 -0.70287079 0.064688176 4288387995
-1.1156687 -0.69276518 0.033931073 4288322202
-0.89753377 -0.69665623 0.022179049 4288124823
-0.69642258 -0.69395339 0.023052501 4288190616
-0.50117648 -0.69929975 0.02168032 4288387995
-0.30053592 -0.70286638 0.027266478 4288322202
-0.10699083 -0.69693738 0.026906105 4288387995
0.097025789 -0.70092022 0.028414581 4288322202
0.30527708 -0.70386744 0.036521349 4288256409
0.49754608 -0.69675386 0.032806415 4288256409
0.69184148 -0.69159722 0.028312348 4288256409
0.90565151 -0.69363618 0.021193612 4288256409
1.0940964 -0.70036232 0.021365404 4288256409
1.2986281 -0.69854623 0.022656392 4288322458
1.4906329 -0.68521166 0.025141785 4288322202
-1.4956468 -0.49943882 0.036583345 4288387995
-1.3042407 -0.50300336 0.050960671 4288387995
-1.1098385 -0.50044888 0.036488272 4288322202
-0.90329069 -0.50339675 0.020004416 4288322202
-0.69314003 -0.49991709 0.023527367 4288124823
-0.50363261 -0.49635509 0.023002913 4288256409
-0.3061457 -0.49307591 0.023413042 4288322202
-0.0984153 -0.49860361 0.020501187 4288387995
0.1050177 -0.50192899 0.023147091 4288387995
0.30092436 -0.50159967 0.028492386 4288387995
0.50038928 -0.50234264 0.023474211 4288322202
0.70313162 -0.50015718 0.035453398 4288387995
0.90927112 -0.5036388 0.023756757 4288322202
1.0861278 -0.50217813 0.020227034 4288322202
1.301232 -0.49284643 0.020056812 4288387739
1.4847499 -0.49823904 0.024415607 4288387739
-1.4924483 -0.30433869 0.042188667 4288387995
-1.3014948 -0.30779099 0.050969455 4288387995
-1.0992652 -0.30418357 0.046879776 4288322202
-0.90110934 -0.3004832 0.026899828 4287927444
-0.68586904 -0.30121458 0.032442674 4287927444
-0.50240326 -0.30416608 0.023140593 4288190616
-0.30288798 -0.30398586 0.023330649 4288322202
-0.094428509 -0.28396922 0.039484166 4287861651
0.091589928 -0.29293436 0.033664562 4288387995
0.30567923 -0.30308062 0.043279402 4288322202
0.5059815 -0.2945112 0.047102105 4288322202
0.70125663 -0.29236338 0.034139153 4288387995
0.88901943 -0.30018607 0.035347942 4288453788
1.0943341 -0.29269388 0.053573631 4284056665
1.2940557 -0.30629829 0.022543998 4288322202
1.4946686 -0.30499122 0.034460362 4288387739
-1.495332 -0.10814807 0.043529492 4288387995
-1.2886645 -0.098321073 0.069984533 4286743426
-1.1015763 -0.13721089 0.099222079 4286479998
-0.92004198 -0.085409492 0.086765237 4288585374
-0.69956809 -0.10818207 0.019414004 4288387995
-0.49776256 -0.10310499 0.023061542 4288322202
-0.30119357 -0.099840194 0.024354398 4288190616
-0.10671346 -0.109706 0.091548026 4285624689
0.095627658 -0.11979563 0.092259482 4288322714
0.30743277 -0.10757015 0.029832171 4288387995
0.50735223 -0.10411391 0.07090909 4288387995
0.69659084 -0.096927971 0.074092768 4288322202
0.93010664 -0.080228597 0.084110655 4286348412
1.0787191 -0.13184395 0.094435267 4286019959
1.2812788 -0.091930695 0.057515368 4289374890
1.495343 -0.10214205 0.032909162 4288387739
-1.4986569 0.10019015 0.051307239 4288387995
-1.2954661 0.086424068 0.057690185 4287203721
-1.0826825 0.13670631 0.096177667 4286019447
-0.91714764 0.078732163 0.057190917 4289111718
-0.70416147 0.096010186 0.017993366 4288322202
-0.50103158 0.096935667 0.019799359 4288387995
-0.29911104 0.10156206 0.029163295 4288256409
-0.1119011 0.092942365 0.088798389 4285493359
0.10041011 0.10668433 0.085650995 4287927444
0.30736354 0.10242912 0.018620735 4288322202
0.50553197 0.086771734 0.026881868 4288322202
0.69441575 0.083966851 0.03520859 4288124823
0.93873245 0.10062924 0.088816032 4286085240
1.0722853 0.15211827 0.097457983 4285888373
1.2907687 0.096912637 0.05237294 4288848546
1.4963628 0.10514108 0.045559954 4288322202
-1.3305277 0.29633671 0.07381621 4288322202
-1.071907 0.28852332 0.018163653 4288453788
-0.89736176 0.29914859 0.018542131 4288387995
-0.69492817 0.29887694 0.017061131 4288322202
-0.49953544 0.29041278 0.019774539 4288322202
-0.30171001 0.30216303 0.029036833 4288387995
-0.096715763 0.30743426 0.047785401 4288190616
0.097866468 0.31388858 0.034059554 4288190616
0.30840483 0.30838183 0.015016064 4288322202
0.49470916 0.30839169 0.015826037 4288387995
0.69530189 0.30131862 0.022015875 4288322202
0.90110916 0.29771116 0.037585456 4287861651
1.0978247 0.2912361 0.059500121 4287600527
1.3113551 0.30488074 0.033309173 4288322202
1.493798 0.3122485 0.052361496 4288387995
-1.324895 0.48565823 0.05978347 4288387995
-1.0827745 0.49932951 0.020887023 4288453788
-0.89259386 0.49608782 0.018878506 4288322202
-0.69462931 0.50812966 0.018434605 4288322202
-0.50642866 0.50902486 0.01896444 4288387995
-0.30173045 0.49864352 0.02094757 4288387995
-0.092385948 0.50107747 0.046862643 4288322202
0.099961422 0.50143224 0.04941766 4288256409
0.30449793 0.50600177 0.037898332 4288322202
0.48879832 0.50098044 0.025388569 4288322202
0.70725191 0.50551808 0.015680898 4288387995
0.89500028 0.4952811 0.017521894 4288322202
1.1215442 0.49382809 0.046737455 4288322202
1.2987076 0.50251698 0.039754603 4288322202
1.4919446 0.49993625 0.057233814 4288322202
-1.3031567 0.69309372 0.039007984 4288387995
-1.0748101 0.71754849 0.033462439 4286085240
-0.89906126 0.70086253 0.020878963 4288322202
-0.69960362 0.70116925 0.019616282 4288322202
-0.50011969 0.70097929 0.020353455 4288387995
-0.2982631 0.69168741 0.023001943 4288387995
-0.093708567 0.69662201 0.046147298 4288387995
0.10488556 0.69475061 0.054405641 4288256409
0.3019124 0.6909281 0.056417722 4288256409
0.49298739 0.69229555 0.048346996 4288190616
0.70049453 0.69617563 0.016100179 4288387995
0.89967442 0.69544679 0.016030908 4288387995
1.1053814 0.69429523 0.017221985 4288387995
1.2987925 0.68526763 0.037507068 4288322202
1.4957573 0.6870141 0.032536458 4288322202
-1.2535993 0.94500101 0.062960647 4286874756
-1.0803853 0.92984354 0.089785673 4286545791
-0.91773003 0.90902764 0.057689145 4286940549
-0.69493186 0.88851434 0.017513711 4288322202
-0.50481009 0.89753455 0.020344639 4288322202
-0.30962479 0.90314001 0.026850911 4288387995
-0.076968208 0.93233699 0.094895549 4286085240
0.088222146 0.92704207 0.088181719 4287466893
0.29586411 0.88930076 0.04818406 4288124823
0.49999604 0.8753674 0.034262426 4288190616
0.70172048 0.89745212 0.018758822 4288322202
0.90744215 0.90189606 0.029134894 4287993237
1.0802039 0.92231995 0.068022616 4286677377
1.3097029 0.88611263 0.019856039 4287993237
-1.2804888 1.0996534 0.075277202 4285624945
-1.0652831 1.0310255 0.099688657 4287861651
-0.92375505 1.0863895 0.074812405 4289506732
-0.69994265 1.1042118 0.019863663 4288322202
-0.5049457 1.1014425 0.02037099 4288322202
-0.28900272 1.102302 0.03840341 4287072135
-0.13821705 1.0866822 0.10426709 4284835173
0.1193676 1.0971529 0.099780679 4289703855
0.28289232 1.1002226 0.026106076 4288124823
0.51575094 1.1108297 0.05831128 4288190616
0.69413751 1.1055379 0.023102362 4288059030
0.93675023 1.0926152 0.084313162 4285887861
1.0678742 1.0892358 0.064180821 4284835173
1.327981 1.0598227 0.034306172 4286874756
-1.495692 1.3078673 0.019429237 4288387995
-1.30565 1.2932776 0.029771946 4287532686
-1.0999253 1.2788273 0.067374408 4287006342
-0.8983919 1.2932761 0.027650174 4288387995
-0.69839787 1.2975202 0.020145219 4288322202
-0.50087488 1.2916336 0.023632115 4288387995
-0.29550028 1.3013576 0.021050176 4288322202
-0.098313749 1.2761309 0.055527113 4286481534
0.073585421 1.2664343 0.069942638 4287203977
0.30256522 1.3008671 0.021363024 4288322202
0.51274937 1.30323 0.025486102 4288256409
0.69278002 1.3053998 0.018492464 4288322202
0.87966985 1.3010744 0.026483212 4287993237
1.0392765 1.2950711 0.088504121 4284374622
1.3252181 1.3159835 0.012181325 4288387995
-1.4936047 1.4956684 0.018946756 4288387995
-0.89460713 1.4943372 0.01889764 4288387995
-0.6933015 1.4970374 0.016695745 4288387995
-0.50466448 1.4996049 0.019128064 4288322202
-0.11238209 1.4980597 0.019541783 4288322202
0.691383 1.4952075 0.013535746 4288322202
1.1076229 1.4944134 0.015364969 4288322202
1.3009928 1.4924026 0.012085554 4288387995
-0.094841018 -1.4932431 0.23679212 4288387995
0.88025075 -1.497828 0.34209463 4288387995
1.257345 -1.4712352 0.39062819 4288387995
-1.2089783 -1.2038482 0.28036731 4284835173
-1.1001698 -1.2712533 0.24320379 4285889397
-0.94238633 -1.3033043 0.24030955 4288980132
-0.73190266 -1.2176049 0.2147616 4288387995
-0.28143683 -1.2994685 0.20738927 4288387995
-0.079507828 -1.2419759 0.29390866 4284177243
0.05632114 -1.2509643 0.28322038 4287403404
0.31035638 -1.3027295 0.30784997 4286743426
0.51819813 -1.3019533 0.31662989 4285558896
0.69526559 -1.2978232 0.3363044 4285690482
0.9773767 -1.2270082 0.31537595 4284966759
1.0568559 -1.2340004 0.29654136 4285295724
1.2465533 -1.3575234 0.36490396 4287730065
-1.2391205 -1.0818486 0.2887322 4284769636
-1.1262156 -1.1075897 0.27340192 4284900966
-0.9555971 -1.090698 0.29495749 4290493371
-0.66227931 -1.1651609 0.24720374 4288387995
-0.50094193 -1.0995672 0.26893812 4288387995
-0.30833742 -1.0733544 0.25171065 4288387995
-0.13063781 -1.0956575 0.29222172 4284835173
0.13807985 -1.0945247 0.29346475 4290295992
0.38289064 -1.1641304 0.36116996 4288651167
0.44076705 -1.0810899 0.33531633 4288453788
0.73698759 -1.1783705 0.34400371 4284900966
0.95777041 -1.0948589 0.30456504 4284769892
1.0400138 -1.1146998 0.28385478 4284966759
1.2322849 -1.0251423 0.2623747 4289443499
-1.2164809 -0.9796682 0.29416332 4284835173
-1.1035084 -0.95188987 0.29400468 4285295724
-0.98943537 -0.99129969 0.29904905 4288453788
-0.42377675 -0.98438925 0.35940686 4288387995
-0.29376024 -0.95571315 0.35381556 4288387995
-0.084505193 -0.94184512 0.30973938 4285164394
0.073134884 -0.93920225 0.31037167 4286808963
0.30052418 -0.85664701 0.3074483 4288453788
0.49010423 -0.86392897 0.26031709 4288453788
0.68497896 -0.82967544 0.22589585 4288190616
0.98418856 -0.98408252 0.29920095 4284900966
1.0961204 -0.95181549 0.29118788 4284638050
1.2421573 -0.94079071 0.27082625 4281414449
-1.3173926 -0.65221196 0.21278492 4288387995
-0.031353161 -0.75863391 0.33166239 4288387995
0.10708551 -0.70127785 0.32402849 4288387995
0.30046037 -0.70357066 0.34329158 4288387995
0.49955782 -0.69898677 0.34500903 4288387995
0.66336453 -0.68670571 0.30230805 4288322202
0.90937543 -0.69803244 0.29473758 4288059030
1.1113695 -0.67229891 0.2680715 4287335307
1.310931 -0.65474641 0.26092586 4284769380
-1.4991854 -0.50467438 0.26780841 4288190616
-1.2937413 -0.49327439 0.24057581 4288322202
-1.1819783 -0.45379925 0.25314191 4288387995
0.15337887 -0.52695429 0.2637473 4288387995
0.30097353 -0.49553466 0.26603603 4288387995
0.50038314 -0.49425665 0.28428003 4288387995
0.67433584 -0.48628977 0.29651371 4288387995
0.96483421 -0.58554089 0.38814741 4288322202
1.144082 -0.50223947 0.28836986 4287466893
1.2736664 -0.56149745 0.33848372 4286677377
-1.4988602 -0.30545565 0.31209317 4288387995
-1.2998506 -0.30359998 0.26451814 4288322202
-1.1334188 -0.27567878 0.30991656 4287598479
-0.84325618 -0.23060092 0.29667097 4280098077
-0.65026033 -0.30683932 0.29999664 4284900966
-0.044296049 -0.21385649 0.30202082 4285624689
0.030609546 -0.20981747 0.30032828 4288716960
0.32142401 -0.35540724 0.21639302 4288387995
0.50719708 -0.32896748 0.22409685 4288387995
0.70981139 -0.30739245 0.26319429 4288387995
0.83904135 -0.24193354 0.24344048 4288387995
1.0898719 -0.27580881 0.29620337 4278872330
1.2597195 -0.31502059 0.26740974 4284319325
-1.4638764 -0.090616062 0.35266021 4287006342
-1.2880975 -0.111114 0.30621621 4284638050
-1.0953439 -0.14131066 0.29421368 4287006342
-0.9272691 -0.083736174 0.30207351 4287861651
-0.70783335 -0.053025156 0.26171929 4288651167
-0.55737793 -0.018364957 0.2359031 4288387995
-0.099630706 -0.10010019 0.30346778 4284900966
0.08952561 -0.11751643 0.30236661 4287928468
0.79238719 -0.18713553 0.38086203 4288387995
0.94127762 -0.068631977 0.30104735 4285363053
1.0654212 -0.12685986 0.30051234 4285100393
1.2409149 -0.061777558 0.2478513 4290888129
-1.4516547 0.079786897 0.28314546 4288059030
-1.2691193 0.060590945 0.29355103 4285887861
-1.0773176 0.13183993 0.30293337 4285887861
-0.94897473 0.058867283 0.30292529 4289835441
-0.69784778 0.099294499 0.26879734 4290230199
-0.50538325 0.10519749 0.23352066 4288519581
-0.35395771 0.14249311 0.20767948 4288387995
-0.10908943 0.082810499 0.29714793 4284704099
0.095630951 0.099327102 0.2910983 4287861651
0.74575454 0.18909834 0.21735147 4278848010
0.96539825 0.072676249 0.30142593 4285164138
1.0726426 0.13999034 0.2915538 4285428078
1.2344419 0.055412546 0.25713766 4289901234
-1.4686726 0.30356485 0.24250403 4288387995
-1.3039758 0.29699004 0.34229958 4285098345
-1.1023968 0.32350719 0.3043105 4288387995
-0.87899977 0.29623494 0.3016009 4288256409
-0.69663572 0.3031334 0.28082407 4287730065
-0.49886137 0.30135781 0.24380913 4288322202
-0.33114269 0.30983517 0.21326339 4288387995
0.76671982 0.2342083 0.23639958 4281611316
0.89617479 0.23694205 0.23382458 4284966759
1.0526215 0.26210487 0.26968503 4283728468
-1.4872249 0.50411302 0.2575278 4288387995
-1.2840483 0.51692021 0.25265449 4286611584
-1.0996685 0.50066519 0.29252547 4286545791
-0.88617319 0.50541788 0.30106995 4288387995
-0.70726967 0.50439721 0.29501441 4288387995
-0.49490345 0.50397962 0.25495067 4288387995
-0.29642412 0.49824437 0.21787879 4288387995
-0.19075935 0.55712873 0.20177242 4288387995
0.46653658 0.59385246 0.29680637 4284900966
1.1371722 0.48295438 0.22286141 4288387995
-1.4934292 0.70184582 0.25244758 4288387995
-1.3031888 0.69339401 0.2322659 4287993237
-1.1023983 0.6977067 0.31101754 4283848278
-0.90605104 0.71546429 0.31189707 4287006342
-0.70436025 0.69570267 0.30787429 4288322202
-0.4996019 0.70981073 0.2732299 4288387995
-0.29702252 0.69952947 0.23061091 4288387995
-0.16308001 0.72261101 0.20634691 4288387995
0.47257549 0.6473372 0.29920515 4284900966
1.1963062 0.60967016 0.20925128 4288387995
1.2077348 0.63250285 0.20472427 4288387995
-1.4991868 0.89472926 0.2640928 4288322202
-1.2570623 0.96159101 0.30281016 4286019447
-1.0924559 0.94130516 0.2976293 4285822068
-0.92382562 0.92792928 0.29996988 4284900966
-0.69605529 0.8722803 0.32735315 4288322202
-0.49612838 0.86454308 0.29694939 4288387995
-0.30304301 0.85451686 0.27466297 4288387995
-0.070381358 0.95245785 0.29893771 4284966759
0.084731124 0.94548184 0.29796064 4286151033
0.21613488 0.96723843 0.31447032 4284243036
0.99022508 0.99147952 0.31406537 4284900966
1.0585532 0.96193624 0.29601815 4285361517
-1.4866593 1.0880551 0.27220514 4288387995
-1.2757003 1.0737423 0.28790081 4284967271
-1.011662 1.0350782 0.27517062 4286940549
-0.9471916 1.0744926 0.29898265 4289310633
-0.68707544 1.0957005 0.33493409 4288387995
-0.49839616 1.1008869 0.34834442 4288387995
-0.22801593 1.0822223 0.30909827 4279834905
-0.13951205 1.0793092 0.30059502 4284111450
0.12212449 1.0898002 0.28727046 4289506732
0.23270828 1.0190862 0.31879419 4282532418
0.47303498 1.1327957 0.20793207 4288387995
0.95710218 1.0934596 0.29949546 4284900966
1.0401539 1.0809504 0.29661474 4284900966
-1.4866642 1.2860169 0.28261498 4288322459
-1.3464476 1.2603736 0.25877708 4283716692
-1.066035 1.2416447 0.29810753 4286414205
-0.99273962 1.2069342 0.30002436 4288914339
-0.676364 1.3029697 0.35158184 4288387995
-0.53607428 1.2602282 0.36105332 4288387995
-0.28466439 1.3198328 0.3920767 4288387995
-0.092776842 1.2312744 0.29160431 4282211645
0.061286926 1.2331522 0.28631833 4286414205
0.56000501 1.223279 0.20994139 4288387995
0.93397266 1.2022963 0.30012706 4284900966
1.019375 1.2788579 0.26138061 4282006074
-1.4942274 1.485085 0.27013206 4288322459
-1.2882246 1.4840783 0.29895917 4288387995
-0.45320171 1.4847471 0.39241293 4288387995
-0.38593385 1.4189246 0.39227867 4288387995
0.22257124 -1.4588424 0.45398691 4283860310
1.1156505 -1.4249759 0.4007028 4284900966
1.4773407 -1.4848244 0.43524158 4287730065
-1.0159836 -1.2264329 0.45520324 4289572269
-0.99180794 -1.2066388 0.45760334 4290361785
-0.089687347 -1.2369353 0.43516937 4284835173
0.06832356 -1.2374403 0.43526992 4288522397
0.27284947 -1.2959535 0.50556892 4283990871
0.97391725 -1.2275895 0.50279254 4284835173
1.0476434 -1.2527828 0.47688833 4285098345
1.3688673 -1.3473226 0.40346733 4288387995
1.4834951 -1.3137891 0.43605796 4286611584
-1.2371783 -1.0621313 0.44612092 4284639074
-1.0394659 -1.0138133 0.4202778 4285098345
-0.95721686 -1.0831324 0.46555179 4290559676
-0.1334327 -1.0878873 0.46873993 4284900966
0.13477856 -1.0758201 0.45600396 4289177511
0.3431606 -1.1012417 0.50613678 4288322458
0.4131864 -1.0254129 0.43870682 4288322458
0.94959909 -1.1034856 0.4858484 4284835173
1.0296477 -1.1281552 0.45435268 4284639074
1.2302814 -1.0180056 0.46501449 4288854177
-1.2134383 -0.9890483 0.43761849 4284900966
-1.0837096 -0.95826954 0.46302596 4285690738
-0.98923695 -0.98877442 0.47109717 4288257177
-0.25131696 -0.87743789 0.41783533 4288387995
-0.098909825 -0.93023986 0.46271077 4283453520
0.069633499 -0.95032746 0.44936088 4286611584
0.28298596 -0.91375345 0.42328849 4288387994
0.45406997 -0.8963992 0.47671178 4288387739
0.98547703 -0.98538309 0.47091919 4284769636
1.0854058 -0.95159113 0.45830008 4285295980
1.2088109 -0.98407054 0.45705777 4288653215
-0.053337913 -0.77663338 0.46391532 4288387995
0.097118542 -0.73365307 0.46680486 4288387995
0.28910127 -0.67677116 0.4724398 4288387995
0.51933908 -0.68377113 0.45185471 4288387995
0.66859353 -0.62458467 0.42272708 4288387995
1.2769798 -0.67926288 0.51831663 4282203453
1.4154626 -0.74804467 0.5444178 4278782473
0.35570556 -0.57008386 0.55747569 4288387995
0.52232641 -0.54716891 0.53482735 4288387995
0.67550874 -0.50802594 0.47949603 4288387995
0.88675719 -0.50055593 0.48915839 4288387995
1.1703056 -0.50321716 0.49148169 4285032552
1.2125247 -0.54355258 0.51285446 4284966759
-1.1040205 -0.20660682 0.40904045 4285164138
-0.83793122 -0.22755747 0.47001326 4279045389
-0.64779663 -0.30457497 0.42146635 4284900966
-0.044940792 -0.21455859 0.4089857 4285690482
0.033168241 -0.20957609 0.41043472 4288848546
0.72057027 -0.32528022 0.41542685 4288387995
0.92757189 -0.38478291 0.58941936 4288387995
1.0970262 -0.29275945 0.44949588 4279921690
1.249162 -0.34154558 0.54863799 4284903014
1.4128151 -0.26036492 0.58517092 4284900966
-1.4591662 -0.094939865 0.41822541 4284900966
-1.2512234 -0.11779221 0.42285955 4284506208
-1.0673796 -0.14175545 0.45284536 4287664272
-0.91015625 -0.084851526 0.46732312 4286284155
-0.091387019 -0.097539507 0.44436103 4284966759
0.088423252 -0.11253349 0.4434498 4288651935
0.95865792 -0.068934903 0.48083588 4283196748
1.0497093 -0.13271832 0.47168869 4283459664
-1.31247 0.15414201 0.4111596 4287795858
-1.0710943 0.13131227 0.46357143 4285887861
-0.94812685 0.050510656 0.46891809 4289901234
-0.12259521 0.057469536 0.42838949 4284770148
0.124413 0.071046181 0.45681587 4289309097
0.96513015 0.066545658 0.46872276 4284703843
1.043957 0.14125971 0.45540801 4284114522
-1.3064992 0.29893041 0.44215024 4287335307
-1.1706128 0.31346601 0.44229427 4287795858
1.0559359 0.22514829 0.46488994 4278216192
-1.4955537 0.498831 0.48470941 4285032552
-1.3132504 0.49797991 0.46865118 4285493103
-1.156312 0.50418985 0.48850822 4288190616
0.46142623 0.58896446 0.50222248 4284900966
-1.3030677 0.69993937 0.48206195 4283979864
-1.1333077 0.70943564 0.53083199 4287006342
-0.95944339 0.79687285 0.46518925 4287598479
0.46555644 0.63975507 0.4965052 4284900966
-1.4886717 0.94816935 0.5124011 4284572001
-1.2875162 0.95572728 0.48416224 4284703587
-1.0938745 0.94536346 0.46912926 4286874756
-0.9276942 0.93829149 0.47423989 4284374622
-0.61429662 0.95900995 0.4041853 4288387995
-0.077556163 0.95376265 0.48087624 4284966759
0.073611915 0.93869102 0.47976995 4286414205
0.21861342 0.95398766 0.4984588 4284900966
0.99318159 0.9930864 0.4514198 4284835173
1.050714 0.9628045 0.46160179 4285164138
-1.4875993 1.0298854 0.48516214 4284574817
-1.2972347 1.0471659 0.45994484 4284243804
-1.0108895 1.0298152 0.46471611 4290098357
-0.94460845 1.0741789 0.46998993 4288719264
-0.6441403 1.1194459 0.41204906 4288387995
-0.56840277 1.1012943 0.42876682 4288387995
-0.21409476 1.0798628 0.46220723 4278848010
-0.15256587 1.0665141 0.47942716 4284440927
0.12191161 1.0621128 0.46485034 4289770160
0.95603424 1.0924889 0.46541461 4284900966
1.0308172 1.0559299 0.46537089 4284900966
-1.4875054 1.3055748 0.4180761 4288322460
-1.0609857 1.2397979 0.46133974 4286348412
-0.99157149 1.2074695 0.46506241 4288848546
-0.61288935 1.3158823 0.43817294 4288387995
-0.53157568 1.3030503 0.45674887 4288387995
-0.10306666 1.2290509 0.42126942 4281949241
0.035782456 1.3713417 0.42909542 4288387995
0.93241954 1.2019897 0.44480121 4284900966
-0.50178427 1.4915265 0.48176688 4288387995
0.0028233528 1.4036744 0.42916977 4288387995
0.18489404 -1.3774716 0.64829493 4278216192
0.23492514 -1.276033 0.63017118 4278412547
0.96942538 -1.2342836 0.63209838 4284835173
1.0372901 -1.2741587 0.62505382 4285032552
0.28489894 -1.1665426 0.62142211 4283008329
0.93541187 -1.1211822 0.62890494 4284835173
1.0183439 -1.0329447 0.61461961 4283657556
0.99199718 -0.98414809 0.6308794 4284443232
1.2908367 -0.8078512 0.66133285 4284572001
1.2427843 -0.70210457 0.65719843 4284900966
0.53034854 -0.46533665 0.61324412 4288387995
0.6717605 -0.42008144 0.62060213 4288387995
1.2357525 -0.54710269 0.65257412 4284900966
0.75012517 -0.36886579 0.64965266 4288387995
0.89244968 -0.324442 0.65598458 4288387995
1.0610467 -0.26741868 0.66768855 4288387995
1.2499992 -0.24589467 0.64030933 4288387995
1.4482766 -0.21568406 0.61886388 4286216826
0.95533991 -0.11258392 0.61320937 4278216192
1.0608388 -0.16256541 0.63883936 4279528468
1.277244 -0.14097811 0.73364037 4288387995
1.4978113 -0.10541 0.71165788 4287927444
-1.3100629 0.96309817 0.61529815 4286282619
-1.1204985 0.89851129 0.62754959 4285295467
-0.88890684 0.98364168 0.60346025 4279440147
-0.12774985 0.95702082 0.62314713 4284966759
0.096898653 0.91477972 0.6083445 4284374622
0.22075452 0.95428044 0.60628426 4284900966
-1.4980065 1.072167 0.64604354 4287073671
-1.2908336 1.0868653 0.64252245 4287664271
-0.84860873 1.0597311 0.60582989 4279440147
-0.20070639 1.0646104 0.64924735 4284900966
-0.18210399 1.0833226 0.6291064 4283655764
-1.4966304 1.2865816 0.70607287 4288387739
-1.3079227 1.3096907 0.69855797 4288322459
-1.1930091 1.2278302 0.67023176 4287466893
-1.1733496 1.4640306 0.72732842 4288387995
1.3355633 -0.048583806 0.80712211 4288387995
1.4526644 -0.010230303 0.81405407 4288387995
